<?xml version="1.0" encoding="utf-8"?>
<!-- Generator: Adobe Illustrator 18.1.1, SVG Export Plug-In . SVG Version: 6.00 Build 0)  -->
<svg version="1.1" id="Ebene_1" xmlns="http://www.w3.org/2000/svg" xmlns:xlink="http://www.w3.org/1999/xlink" x="0px" y="0px"
	 viewBox="368.3 0 479.4 500" enable-background="new 368.3 0 479.4 500" xml:space="preserve">
<g>
	<polygon fill="#1488C8" points="578.9,399 574,401 570.3,397.2 471.5,297.1 370.3,340.3 608,500 845.7,340.3 784.6,314.1 	"/>
	<polygon fill="#1488C8" points="640.8,250.7 639.8,251.5 638.8,252.1 612.5,269.9 608,272.9 603.7,269.9 577.2,252.1 576.2,251.5 
		575.2,250.7 454.2,169.4 373.2,186.1 477.7,292.3 478.5,292.9 479.3,293.7 576,391.7 774.6,309.8 775.8,309.4 777.2,308.8 
		843,281.7 720.6,197.2 	"/>
	<polygon fill="#1488C8" points="460.5,164 465,167.2 583.8,247.2 584.8,247.7 585.8,248.3 608,263.3 630.2,248.3 631.2,247.7 
		632.2,247.2 713.5,192.3 717,190 720.6,187.6 847.7,102.2 608,0 368.3,102.2 455.9,161.1 	"/>
</g>
</svg>
